<?xml version="1.0" encoding="iso-8859-1"?>
<!-- Uploaded to: SVG Repo, www.svgrepo.com, Generator: SVG Repo Mixer Tools -->
<svg fill="#000000" height="800px" width="800px" version="1.1" id="Layer_1" xmlns="http://www.w3.org/2000/svg" xmlns:xlink="http://www.w3.org/1999/xlink" 
	 viewBox="0 0 512 512" xml:space="preserve">
<g>
	<g>
		<path d="M276.459,0.02V0c-0.175,0-0.348,0.012-0.522,0.013C275.588,0.011,275.242,0,274.893,0h-37.786
			C130.047,0,42.948,87.1,42.948,194.159v123.682C42.948,424.9,130.047,512,237.107,512h37.786c0.349,0,0.695-0.011,1.043-0.013
			c0.174,0.001,0.347,0.013,0.522,0.013v-0.02c106.341-0.846,192.593-87.602,192.593-194.139V194.159
			C469.052,87.623,382.799,0.866,276.459,0.02z M424.101,126.733c2.606,5.744,4.882,11.668,6.82,17.741h-45.83v30.417h52.405
			c0.686,5.827,1.065,11.746,1.119,17.741h-88.135c5.872-9.607,9.262-20.889,9.262-32.95s-3.389-23.342-9.261-32.95H424.101z
			 M275.935,30.43c26.258,0.165,51.07,6.537,73.038,17.728h-69.979v30.417h111.769c5.524,5.537,10.655,11.465,15.346,17.741H296.376
			h-19.918c-18.169,0-32.95-14.781-32.95-32.95C243.508,45.373,258.008,30.711,275.935,30.43z M121.237,78.576h66.506V48.158
			h-24.717c17.985-9.163,37.878-15.091,58.91-17.033c-5.611,9.453-8.845,20.474-8.845,32.241c0,12.06,3.389,23.342,9.261,32.95
			H105.89C110.582,90.041,115.713,84.114,121.237,78.576z M74.504,174.892h219.335v-30.417H81.079
			c1.939-6.073,4.214-11.997,6.821-17.741h188.559h19.918c18.169,0,32.95,14.781,32.95,32.95s-14.781,32.95-32.95,32.95H195.346
			H73.384C73.439,186.638,73.818,180.718,74.504,174.892z M73.365,271.209h33.266v-30.417H73.365V223.05h67.875
			c-5.873,9.607-9.261,20.889-9.261,32.95c0,12.06,3.39,23.342,9.261,32.95H73.365V271.209z M221.936,480.873
			c-21.031-1.942-40.925-7.87-58.91-17.033h24.717v-30.417h-66.507c-5.524-5.537-10.655-11.465-15.346-17.741h116.462
			c-5.872,9.607-9.261,20.89-9.261,32.95C213.09,460.399,216.325,471.42,221.936,480.873z M87.9,385.266
			c-2.606-5.744-4.882-11.668-6.821-17.741h212.76v-30.417H74.504c-0.686-5.827-1.065-11.746-1.119-17.741h121.962h101.031
			c18.169,0,32.95,14.782,32.95,32.95s-14.781,32.95-32.95,32.95h-19.918H87.9z M390.763,433.423H278.994v30.417h69.979
			c-21.966,11.191-46.779,17.563-73.038,17.728c-17.928-0.281-32.428-14.943-32.428-32.937c0-18.168,14.781-32.95,32.95-32.95
			h19.918H406.11C401.418,421.958,396.287,427.885,390.763,433.423z M437.496,337.107h-52.405v30.417h45.828
			c-1.939,6.073-4.214,11.997-6.82,17.741h-73.619c5.872-9.607,9.261-20.89,9.261-32.95c0-12.06-3.389-23.343-9.262-32.95h88.136
			C438.561,325.361,438.182,331.281,437.496,337.107z M438.635,240.791H197.883v30.417h240.752v17.741H296.376H195.345
			c-18.169,0-32.95-14.781-32.95-32.95s14.781-32.95,32.95-32.95h101.031h142.259V240.791z"/>
	</g>
</g>
</svg>